<mxfile host="app.diagrams.net" modified="2023-07-03T12:43:12.587Z" agent="Mozilla/5.0 (Linux; Android 9) AppleWebKit/537.36 (KHTML, like Gecko) YaBrowser/23.5.3.904 YaBrowser/23.5.3.904 Yowser/2.5 Mobile Safari/537.36" version="21.5.2" etag="-qEZuU2NdCR8x0ON7HxS" type="github">
  <diagram name="Страница 1" id="EoLaxdHHUMNVQc0NEERN">
    <mxGraphModel>
      <root>
        <mxCell id="0" />
        <mxCell id="1" parent="0" />
      </root>
    </mxGraphModel>
  </diagram>
</mxfile>
